# xmcd CD database file
#
# Track frame offsets:
#	150
#	20017
#	41245
#	61087
#
# Disc length: 1095 seconds
#
# Revision: 4
# Processed by: cddbd v1.5.1PL0 Copyright (c) Steve Scherf et al.
# Submitted via: CDex 1.51
#
DISCID=2f044504
DTITLE=サイキックラバー - 超ロボット生命体　トランスフォーマー　マイクロン伝説　エンディング・テーマ
DYEAR=1900
DGENRE=アニメ
TTITLE0=Never Ending Road
TTITLE1=NO NAME HEROES
TTITLE2=Never Ending Road(オリジナル・カラオケ)
TTITLE3=NO NAME HEROS(オリジナル・カラオケ)
EXTD=
EXTT0=
EXTT1=
EXTT2=
EXTT3=
PLAYORDER=
